<?xml version="1.0" encoding="UTF-8"?>
<svg id="Layer_1" data-name="Layer 1" xmlns="http://www.w3.org/2000/svg" viewBox="0 0 940.99 386.92">
  <defs>
    <style>
      .cls-1 {
        fill: #fff;
      }
    </style>
  </defs>
  <path class="cls-1" d="M22.33,209.76l-4.67,1.68c-.42,2.74-.29,5.59.26,8.31,1.88,9.21,9.84,29.47,13.57,39.13.64,1.66-.47,4.58,2.78,3.52,1.8-.59,12.01-33.09,12.02-35.89s-2.23-9.89-4.07-11.92c-3.03-3.36-7.46-1.63-8.72-4.81,4.59.71,15.54-1.8,18.34,1.57,5.29,6.37,12.47,37.15,18.02,47.37.57,1.06,2.46,4.46,3.49,3.67.97-7.42,17.93-47.37,14.26-50.95l-4.66-1.67h17.53c.19,2.77-3.36,1.15-5.59,3.15-6.2,5.56-20.01,62.48-23.02,64.71-1.55,1.15-3.16.68-4.86.71l-16.76-44.65c-7.81,12.58-10.21,28.92-16.6,42.36-1.14,2.4.5,2.93-4.14,2.31-3.12-1.05-18.27-53.98-22.8-61.75-2.42-4.15-4.79-3.76-6.71-6.85h22.33Z"/>
  <path class="cls-1" d="M495.8,209.98l19.37,52.42c2.27-.18,2.51-2.35,3.23-3.93,3.24-7.04,13.34-35.36,14.03-41.92.72-6.91-4.24-2.83-6.1-6.76,5.02.17,10.14-.3,15.17-.02,1.8.1,4.38-1.05,3.95,1.58-1.98.03-4.02.31-5.68,1.5-5.59,4-19.73,55.55-23.04,65.51l-4.67-.07c-5.42-12.44-9.39-29.28-15.73-40.92-.8-1.48-1.54-3.51-3.48-3.67l-14.37,43.62c.24,1.7-3.32,1.32-3.98,1.03-3.01-1.33-19.44-54.52-22.8-61.73l-6.71-6.83h20.72c.5,2.52-3.07,1.63-4.11,3.14-2.51,3.63,15.39,41.64,15.3,49.47,2.36-.4,3.08-2.93,3.97-4.78,1.78-3.73,10.46-28.3,10.43-31.13-.03-2.28-3.89-11.85-5.23-13.13-2.67-2.54-8.68.12-7.58-5.18l17.31,1.81Z"/>
  <path class="cls-1" d="M580.55,209.76c.23,2.94-3.57.92-5.61,3.16-4.11,4.53-1.7,20.86-2.37,27.14h36.68v-26.32l-6.38-3.99h23.92l-7.77,3.4-.28,59.34,8.04,4.22c-4.27-1.43-22.09,1.66-23.92.86-.68-.3-2-2.01-1.58-2.42,2.21.62,7.97-2.32,7.97-4v-26.32h-36.68v26.32c0,1.72,5.78,4.58,7.96,4v1.58s-23.91,0-23.91,0l6.19-4.18c-1.4-10.72,5.94-53.61-.57-59.66-2.15-2-5.82-.31-5.62-3.15h23.92Z"/>
  <path class="cls-1" d="M913.09,209.76c18.87,3.12,19.99,29.81.8,33.52l15.98,24.66,11.12,10.39c-5.66.23-11.95.33-16.78-3.14-9.61-6.93-14.38-30.98-29.47-28.75v26.32l7.97,2.41v1.58s-25.51,0-25.51,0c.1-2.98,4.36-1.2,6.55-3.81,1.67-1.99,1.28-4.15,1.51-6.46.9-8.88,1.38-41.69-.13-49.49-1.26-6.45-5.48-3.43-7.93-7.22,10.94,1.27,25.45-1.73,35.89,0ZM894.75,243.26c30.39,2.91,29.99-34.23,0-30.3v30.3Z"/>
  <path class="cls-1" d="M245.62,209.76v1.58c-2.2-.57-7.97,2.29-7.97,4v24.72h36.68v-23.13c0-2.61-4.86-6.48-7.97-5.6v-1.58s23.91,0,23.91,0c-.2,3.03-3.9.82-6.29,4.08-1.57,2.14-1.53,5.26-1.76,7.81-.92,10.08-1.3,36.75.18,46.22.28,1.79.95,4.54,2.24,5.74,2.15,2,5.82.31,5.62,3.15h-23.92v-1.58c3.11.88,7.97-2.99,7.97-5.6v-24.72h-36.68v26.32c0,1.72,5.78,4.58,7.96,4v1.58s-23.91,0-23.91,0c1.02-4,5.91-.64,6.49-5.52.73-6.19.95-56.05-.78-58.4-1.57-2.13-6.02-.04-5.71-3.06h23.92Z"/>
  <path class="cls-1" d="M760.77,249.64v23.92l7.96,1.61v1.58s-25.51,0-25.51,0c.09-2.98,4.36-1.2,6.55-3.81,1.67-1.99,1.28-4.15,1.51-6.46.9-8.88,1.38-41.69-.13-49.49-1.26-6.45-5.49-3.44-7.93-7.22h35.89c7.69,0,16.78,12.08,16.78,19.94,0,18.94-20.27,21.93-35.12,19.94ZM760.77,246.45c32.17,5.73,32.21-38.57,0-33.49v33.49Z"/>
  <path class="cls-1" d="M858.06,209.76l1.59,12.75c-5.08.73-4.84-9.56-10.36-9.56h-23.13v27.11l19.62-.31,5.09-7.66c4.47,4.98-2.22,12.88,2.4,19.12-5.1,1.3-2.17-3.68-4.73-5.58-3.17-2.35-19.4-4.32-22.38.01v25.52l2.64,2.13,24.95-1.66,10.69-10.83-5.58,15.94h-48.64c1.02-4,5.91-.64,6.49-5.52,2.06-17.58-1.81-39.16-.04-57.22l-6.45-4.25h47.85Z"/>
  <path class="cls-1" d="M379.59,276.75l6.36-5.47-6.33-16.09-27.31.22-6.26,17.23,6.42,4.09h-19.12c-.19-2.67,3.5-1.49,5.66-3.08,8.48-6.27,25.23-64.36,28.63-65.5,4.63-.62,2.99-.1,4.14,2.31,7.41,15.61,16.41,48.18,25.61,60.47,3.29,4.39,5.47,2.74,7.73,5.83h-25.52ZM377.99,251.23c-.74-2.69-10.76-30.27-12.74-28.7l-9.59,28.7h22.33Z"/>
  <path class="cls-1" d="M724.07,225.71c-4.04-1.79-3.86-7.87-6.85-10.67-7.03-6.57-23.04-5.59-23.54,6.72-.72,17.84,35.68,18.4,33.57,39.68-1.85,18.63-29.67,20.31-42.81,13.48l-.21-15.72,5.66,11.07c10.01,9.86,32.19,4.97,27.13-11.14-3.98-12.66-33.59-14.22-32.71-34.08.75-16.97,24.96-20.93,37.08-14.96,3.87,1.91,1.43,11.26,2.69,15.62Z"/>
  <path class="cls-1" d="M173.85,212.95c-5.45.02-14.33-.35-19.08,2.45-3.81,2.25-2.43,7.25-6.42,8.72.43-3.13-1.66-14.86,2.31-15.54,15.12,1.85,31.03,1.56,46.4,1.28,4.23-.08,10.36-3.19,11.64.96.62,2.01,2.15,15.38-2.94,13.32.98-13.22-12.77-11.37-22.34-11.18v59.81l7.97,2.41v1.58s-25.51,0-25.51,0v-1.58c2.2.57,7.97-2.29,7.97-4v-58.21Z"/>
  <path class="cls-1" d="M110.05,276.75l7.77-3.4-.5-60.52c-1.6-2.37-7.16.38-5.66-4.66l23.9,1.61c-2.47,3.75-6.67.77-7.92,7.21-1.52,7.79-1.03,40.61-.13,49.49.23,2.31-.16,4.47,1.51,6.46,2.19,2.61,6.46.83,6.55,3.81h-25.52Z"/>
  <path class="cls-1" d="M666.67,209.76c-.09,2.98-4.36,1.2-6.55,3.81-1.67,1.99-1.28,4.15-1.51,6.46-1,9.93-1.28,38.44.2,47.83.28,1.79.95,4.54,2.24,5.74,2.15,2,5.82.31,5.62,3.15h-23.92c-.32-3.03,4.13-.93,5.71-3.06.85-1.16.58-2.71.75-4.03.76-5.86.94-54.53-.75-56.82-1.57-2.13-6.02-.04-5.71-3.06h23.92Z"/>
  <path class="cls-1" d="M193.86,38.09c6.71,13.35,19.94,22.4,33.8,27.14,28.45,9.3,59.24,3.48,87.11-5.24,14.09-4.54,27.85-10.07,41.37-16.13,3.4-1.57,7.08-3.35,10.94-3.71,7.93-1.01,16.1,2.45,21.15,8.59,3.84,4.56,5.78,10.65,5.36,16.6-.65,5.63-2.25,11.08-3.44,16.61-4.39,17.47-12.02,50.05-24.53,62.53-2.04,1.99-6.73,5.14-8.1.81-.41-1.68-.02-3.3.28-4.85.88-3.8,2.22-7.3,3.6-10.8,11.57-27.53,26.26-53.6,41.91-78.98,7.63-11.41,20.33-33.88,34.26-36.98,19.68-2.09,9.18,46.66,6.13,57.39-3.16,11.02-8.15,28.09-16.98,35.69-5.07,3.74-11.98,2.93-17.49,1.08-11.57-3.9-20.4-15.18-16.4-27.67,2.3-7.51,7.55-13.51,13.22-18.63,5.55-5.19,12.32-8.73,18.86-12.42,13.13-7.21,26.4-14.07,39.78-20.77,7.34-2.66,37.19-14.68,25.2-24.69-4.79-2.48-12,2.72-15.63,5.86-8.55,7.43-14.7,20.29-8.78,31,1.02,1.92,2.33,3.66,3.8,5.27,8.8,9.65,17.34,19.56,25.32,29.93,11.43,15.36,28.27,38.1,28.5,57.77-.14,12.18-9.97,16.99-21.05,15.08-6.33-1-12.22-3.46-17.66-6.56-21.54-12.39-37.63-36.72-35.42-62.13,3.97-26.08,47.99-19.65,66.8-17.52,36.53,4.54,72.07,15.19,108.69,18.73,23.3,1.85,39.41-2.22,23.33-28.1-3.21-5.21-6.89-10.13-10.73-14.91,3.94,4.69,7.74,9.53,11.08,14.69,16.86,25.81.82,31.46-23.78,29.84-24.55-1.76-48.59-7.13-72.77-11.3-23.69-4.04-48.51-9.33-72.57-7.91-11.01.75-25.44,4.1-27.08,16.91-.65,5.85.19,11.93,1.57,17.64,5.79,22.5,25.93,43.24,48.99,47.65,15.17,2.33,20.13-7.19,16.48-20.89-7.64-26.63-32.06-54.5-50.38-75.21-13.74-13.3-9.45-30.39,3.65-42.24,4.75-4.07,12.97-9.75,19.29-6.11,2.57,1.91,4.47,4.91,4.15,8.25-1.41,10.57-21.08,18.33-30.04,21.76-12.3,6.24-26.6,13.53-39.31,20.56-6.38,3.6-12.95,7.01-18.31,12.03-5.28,4.75-10.26,10.42-12.35,17.25-2.21,6.76.15,14.06,5.47,18.68,5.09,4.54,12.48,7.45,19.27,6.47,3.56-.48,5.9-2.73,7.91-5.57,11.3-16.7,19.82-53.75,17.39-73.81-2.17-16.77-12.46-9.63-20.54-1.44-12.16,13.86-21.41,30.15-30.82,45.95-11.01,19.29-21.71,38.91-30.19,59.43-1.34,3.41-2.65,6.89-3.45,10.34-.26,1.17-.48,2.37-.31,3.43.03.09.06.15.03.1-.02-.03-.15-.13-.22-.14-.17,0,.12,0,.39-.13,13.33-7.13,22.84-48.07,26.61-63.09.85-3.61,1.67-7.23,2.46-10.85.84-3.44,1.32-6.96.61-10.45-2.13-12.43-16.19-20.34-27.91-15.59-15.19,6.96-30.74,13.48-46.84,18.18-28.33,8.29-59.65,13.58-88.23,3.63-13.9-5.05-27-14.49-33.47-28.08h0Z"/>
  <g>
    <path class="cls-1" d="M126.74,340.65h4.5v31.07h14.89v3.77h-19.39v-34.84Z"/>
    <path class="cls-1" d="M171.14,368.67c0,2.58.05,4.86.21,6.82h-4.03l-.26-4.08h-.1c-1.19,2.02-3.83,4.65-8.27,4.65-3.93,0-8.63-2.17-8.63-10.96v-14.63h4.55v13.86c0,4.76,1.45,7.96,5.58,7.96,3.05,0,5.17-2.12,6-4.14.26-.67.41-1.5.41-2.33v-15.35h4.55v18.2Z"/>
    <path class="cls-1" d="M180.81,350.48l3.57,5.38c.93,1.4,1.71,2.69,2.53,4.08h.16c.83-1.5,1.65-2.79,2.48-4.14l3.52-5.33h4.91l-8.53,12.1,8.79,12.92h-5.17l-3.67-5.63c-.98-1.45-1.81-2.84-2.69-4.34h-.1c-.83,1.5-1.71,2.84-2.64,4.34l-3.62,5.63h-5.01l8.89-12.77-8.48-12.25h5.07Z"/>
    <path class="cls-1" d="M223.56,368.67c0,2.58.05,4.86.21,6.82h-4.03l-.26-4.08h-.1c-1.19,2.02-3.83,4.65-8.27,4.65-3.93,0-8.63-2.17-8.63-10.96v-14.63h4.55v13.86c0,4.76,1.45,7.96,5.58,7.96,3.05,0,5.17-2.12,6-4.14.26-.67.41-1.5.41-2.33v-15.35h4.55v18.2Z"/>
    <path class="cls-1" d="M231.1,358.28c0-2.95-.05-5.48-.21-7.81h3.98l.15,4.91h.21c1.14-3.36,3.88-5.48,6.93-5.48.52,0,.88.05,1.29.16v4.29c-.47-.1-.93-.16-1.55-.16-3.21,0-5.48,2.43-6.1,5.84-.1.62-.21,1.34-.21,2.12v13.34h-4.5v-17.21Z"/>
    <path class="cls-1" d="M250.95,350.48l5.48,14.79c.57,1.65,1.19,3.62,1.6,5.12h.1c.47-1.5.98-3.41,1.6-5.22l4.96-14.68h4.81l-6.82,17.84c-3.26,8.58-5.48,12.98-8.58,15.66-2.22,1.96-4.45,2.74-5.58,2.95l-1.14-3.83c1.14-.36,2.64-1.09,3.98-2.22,1.24-.98,2.79-2.74,3.83-5.07.21-.47.36-.83.36-1.09s-.1-.62-.31-1.19l-9.25-23.06h4.96Z"/>
    <path class="cls-1" d="M306.21,338.79v30.24c0,2.22.05,4.76.21,6.46h-4.08l-.21-4.34h-.1c-1.4,2.79-4.45,4.91-8.53,4.91-6.05,0-10.7-5.12-10.7-12.72-.05-8.32,5.12-13.44,11.22-13.44,3.83,0,6.41,1.81,7.55,3.83h.1v-14.94h4.55ZM301.66,360.66c0-.57-.05-1.34-.21-1.91-.67-2.89-3.15-5.27-6.57-5.27-4.7,0-7.5,4.14-7.5,9.67,0,5.07,2.48,9.25,7.39,9.25,3.05,0,5.84-2.02,6.67-5.43.16-.62.21-1.24.21-1.96v-4.34Z"/>
    <path class="cls-1" d="M336.4,362.78c0,9.25-6.41,13.29-12.46,13.29-6.77,0-11.99-4.96-11.99-12.87,0-8.38,5.48-13.29,12.41-13.29s12.05,5.22,12.05,12.87ZM316.55,363.04c0,5.48,3.15,9.62,7.6,9.62s7.6-4.08,7.6-9.72c0-4.24-2.12-9.62-7.5-9.62s-7.7,4.96-7.7,9.72Z"/>
    <path class="cls-1" d="M344.67,363.81c.1,6.15,4.03,8.69,8.58,8.69,3.26,0,5.22-.57,6.93-1.29l.78,3.26c-1.6.72-4.34,1.55-8.32,1.55-7.7,0-12.3-5.07-12.3-12.61s4.45-13.49,11.74-13.49c8.17,0,10.34,7.19,10.34,11.79,0,.93-.1,1.65-.16,2.12h-17.58ZM358,360.56c.05-2.89-1.19-7.39-6.31-7.39-4.6,0-6.62,4.24-6.98,7.39h13.29Z"/>
    <path class="cls-1" d="M367.41,370.84c1.34.88,3.72,1.81,6,1.81,3.31,0,4.86-1.65,4.86-3.72,0-2.17-1.29-3.36-4.65-4.6-4.5-1.6-6.62-4.08-6.62-7.08,0-4.03,3.26-7.34,8.63-7.34,2.53,0,4.76.72,6.15,1.55l-1.14,3.31c-.98-.62-2.79-1.45-5.12-1.45-2.69,0-4.19,1.55-4.19,3.41,0,2.07,1.5,3,4.76,4.24,4.34,1.65,6.57,3.83,6.57,7.55,0,4.39-3.41,7.5-9.36,7.5-2.74,0-5.27-.67-7.03-1.71l1.14-3.46Z"/>
    <path class="cls-1" d="M388.5,357.25c0-2.58-.05-4.7-.21-6.77h4.03l.26,4.14h.1c1.24-2.38,4.14-4.7,8.27-4.7,3.46,0,8.84,2.07,8.84,10.65v14.94h-4.55v-14.42c0-4.03-1.5-7.39-5.79-7.39-3,0-5.32,2.12-6.1,4.65-.21.57-.31,1.34-.31,2.12v15.04h-4.55v-18.25Z"/>
    <path class="cls-1" d="M421.22,340.08c-1.19,4.34-3.41,9.87-4.86,12.25l-2.9.36c1.14-3.05,2.48-8.43,3.05-12.15l4.7-.46Z"/>
    <path class="cls-1" d="M431.09,343.29v7.19h6.51v3.46h-6.51v13.49c0,3.1.88,4.86,3.41,4.86,1.19,0,2.07-.16,2.64-.31l.21,3.41c-.88.36-2.27.62-4.03.62-2.12,0-3.83-.67-4.91-1.91-1.29-1.34-1.76-3.57-1.76-6.51v-13.65h-3.88v-3.46h3.88v-6l4.45-1.19Z"/>
    <path class="cls-1" d="M453.06,370.84c1.34.88,3.72,1.81,6,1.81,3.31,0,4.86-1.65,4.86-3.72,0-2.17-1.29-3.36-4.65-4.6-4.5-1.6-6.62-4.08-6.62-7.08,0-4.03,3.26-7.34,8.63-7.34,2.53,0,4.76.72,6.15,1.55l-1.14,3.31c-.98-.62-2.79-1.45-5.12-1.45-2.69,0-4.19,1.55-4.19,3.41,0,2.07,1.5,3,4.76,4.24,4.34,1.65,6.57,3.83,6.57,7.55,0,4.39-3.41,7.5-9.36,7.5-2.74,0-5.27-.67-7.03-1.71l1.14-3.46Z"/>
    <path class="cls-1" d="M474.15,338.79h4.55v15.61h.1c.72-1.29,1.86-2.43,3.26-3.21,1.34-.78,2.95-1.29,4.65-1.29,3.36,0,8.74,2.07,8.74,10.7v14.89h-4.55v-14.37c0-4.03-1.5-7.44-5.79-7.44-2.95,0-5.27,2.07-6.1,4.55-.26.62-.31,1.29-.31,2.17v15.1h-4.55v-36.71Z"/>
    <path class="cls-1" d="M525.48,362.78c0,9.25-6.41,13.29-12.46,13.29-6.77,0-11.99-4.96-11.99-12.87,0-8.38,5.48-13.29,12.41-13.29s12.04,5.22,12.04,12.87ZM505.63,363.04c0,5.48,3.15,9.62,7.6,9.62s7.6-4.08,7.6-9.72c0-4.24-2.12-9.62-7.5-9.62s-7.7,4.96-7.7,9.72Z"/>
    <path class="cls-1" d="M552.15,368.67c0,2.58.05,4.86.21,6.82h-4.03l-.26-4.08h-.1c-1.19,2.02-3.83,4.65-8.27,4.65-3.93,0-8.63-2.17-8.63-10.96v-14.63h4.55v13.86c0,4.76,1.45,7.96,5.58,7.96,3.05,0,5.17-2.12,6-4.14.26-.67.41-1.5.41-2.33v-15.35h4.55v18.2Z"/>
    <path class="cls-1" d="M565.18,343.29v7.19h6.51v3.46h-6.51v13.49c0,3.1.88,4.86,3.41,4.86,1.19,0,2.07-.16,2.64-.31l.21,3.41c-.88.36-2.27.62-4.03.62-2.12,0-3.83-.67-4.91-1.91-1.29-1.34-1.76-3.57-1.76-6.51v-13.65h-3.88v-3.46h3.88v-6l4.45-1.19Z"/>
    <path class="cls-1" d="M575.57,372.81c0-1.91,1.29-3.26,3.1-3.26s3.05,1.34,3.05,3.26-1.19,3.26-3.1,3.26c-1.81,0-3.05-1.4-3.05-3.26Z"/>
    <path class="cls-1" d="M602.96,340.65v34.84h-4.5v-34.84h4.5Z"/>
    <path class="cls-1" d="M616.97,343.29v7.19h6.51v3.46h-6.51v13.49c0,3.1.88,4.86,3.41,4.86,1.19,0,2.07-.16,2.64-.31l.21,3.41c-.88.36-2.27.62-4.03.62-2.12,0-3.83-.67-4.91-1.91-1.29-1.34-1.76-3.57-1.76-6.51v-13.65h-3.88v-3.46h3.88v-6l4.45-1.19Z"/>
    <path class="cls-1" d="M641.37,350.48l3.31,12.72c.72,2.79,1.4,5.38,1.86,7.96h.16c.57-2.53,1.4-5.22,2.22-7.91l4.08-12.77h3.83l3.88,12.51c.93,3,1.65,5.63,2.22,8.17h.16c.41-2.53,1.09-5.17,1.91-8.12l3.57-12.56h4.5l-8.06,25.02h-4.14l-3.83-11.94c-.88-2.79-1.6-5.27-2.22-8.22h-.1c-.62,3-1.4,5.58-2.27,8.27l-4.03,11.89h-4.14l-7.55-25.02h4.65Z"/>
    <path class="cls-1" d="M677.6,338.79h4.55v15.61h.1c.72-1.29,1.86-2.43,3.26-3.21,1.34-.78,2.95-1.29,4.65-1.29,3.36,0,8.74,2.07,8.74,10.7v14.89h-4.55v-14.37c0-4.03-1.5-7.44-5.79-7.44-2.95,0-5.27,2.07-6.1,4.55-.26.62-.31,1.29-.31,2.17v15.1h-4.55v-36.71Z"/>
    <path class="cls-1" d="M711.36,343.45c.05,1.55-1.08,2.79-2.89,2.79-1.6,0-2.74-1.24-2.74-2.79s1.19-2.84,2.84-2.84,2.79,1.24,2.79,2.84ZM706.29,375.5v-25.02h4.55v25.02h-4.55Z"/>
    <path class="cls-1" d="M717.77,370.84c1.34.88,3.72,1.81,6,1.81,3.31,0,4.86-1.65,4.86-3.72,0-2.17-1.29-3.36-4.65-4.6-4.5-1.6-6.62-4.08-6.62-7.08,0-4.03,3.26-7.34,8.63-7.34,2.53,0,4.76.72,6.15,1.55l-1.14,3.31c-.98-.62-2.79-1.45-5.12-1.45-2.69,0-4.19,1.55-4.19,3.41,0,2.07,1.5,3,4.76,4.24,4.34,1.65,6.57,3.83,6.57,7.55,0,4.39-3.41,7.5-9.36,7.5-2.74,0-5.27-.67-7.03-1.71l1.14-3.46Z"/>
    <path class="cls-1" d="M738.86,358.64c0-3.21-.1-5.79-.21-8.17h4.08l.21,4.29h.1c1.86-3.05,4.81-4.86,8.89-4.86,6.05,0,10.6,5.12,10.6,12.72,0,9-5.48,13.44-11.37,13.44-3.31,0-6.2-1.45-7.7-3.93h-.1v13.6h-4.5v-27.09ZM743.36,365.31c0,.67.1,1.29.21,1.86.83,3.15,3.57,5.33,6.82,5.33,4.81,0,7.6-3.93,7.6-9.67,0-5.01-2.64-9.3-7.44-9.3-3.1,0-6,2.22-6.88,5.63-.16.57-.31,1.24-.31,1.86v4.29Z"/>
    <path class="cls-1" d="M770.8,363.81c.1,6.15,4.03,8.69,8.58,8.69,3.26,0,5.22-.57,6.93-1.29l.78,3.26c-1.6.72-4.34,1.55-8.32,1.55-7.7,0-12.3-5.07-12.3-12.61s4.45-13.49,11.73-13.49c8.17,0,10.34,7.19,10.34,11.79,0,.93-.1,1.65-.16,2.12h-17.58ZM784.14,360.56c.05-2.89-1.19-7.39-6.31-7.39-4.6,0-6.62,4.24-6.98,7.39h13.29Z"/>
    <path class="cls-1" d="M794.17,358.28c0-2.95-.05-5.48-.21-7.81h3.98l.16,4.91h.21c1.14-3.36,3.88-5.48,6.93-5.48.52,0,.88.05,1.29.16v4.29c-.47-.1-.93-.16-1.55-.16-3.21,0-5.48,2.43-6.1,5.84-.1.62-.21,1.34-.21,2.12v13.34h-4.5v-17.21Z"/>
    <path class="cls-1" d="M810.45,370.84c1.34.88,3.72,1.81,6,1.81,3.31,0,4.86-1.65,4.86-3.72,0-2.17-1.29-3.36-4.65-4.6-4.5-1.6-6.62-4.08-6.62-7.08,0-4.03,3.26-7.34,8.63-7.34,2.53,0,4.76.72,6.15,1.55l-1.14,3.31c-.98-.62-2.79-1.45-5.12-1.45-2.69,0-4.19,1.55-4.19,3.41,0,2.07,1.5,3,4.76,4.24,4.34,1.65,6.57,3.83,6.57,7.55,0,4.39-3.41,7.5-9.36,7.5-2.74,0-5.27-.67-7.03-1.71l1.14-3.46Z"/>
    <path class="cls-1" d="M829.89,372.81c0-1.91,1.29-3.26,3.1-3.26s3.05,1.34,3.05,3.26-1.19,3.26-3.1,3.26c-1.81,0-3.05-1.4-3.05-3.26Z"/>
  </g>
</svg>